<svg width="16" height="16" viewBox="0 0 16 16" fill="none" xmlns="http://www.w3.org/2000/svg">
<path fill-rule="evenodd" clip-rule="evenodd" d="M4.146 12.354C4.09944 12.3076 4.06249 12.2524 4.03729 12.1916C4.01208 12.1309 3.99911 12.0658 3.99911 12C3.99911 11.9342 4.01208 11.8691 4.03729 11.8084C4.06249 11.7476 4.09944 11.6924 4.146 11.646L7.793 8L4.146 4.354C4.05211 4.26011 3.99937 4.13278 3.99937 4C3.99937 3.86722 4.05211 3.73989 4.146 3.646C4.23989 3.55211 4.36723 3.49937 4.5 3.49937C4.63278 3.49937 4.76011 3.55211 4.854 3.646L8.854 7.646C8.90056 7.69245 8.93751 7.74762 8.96271 7.80837C8.98792 7.86911 9.00089 7.93423 9.00089 8C9.00089 8.06577 8.98792 8.13089 8.96271 8.19163C8.93751 8.25238 8.90056 8.30755 8.854 8.354L4.854 12.354C4.80755 12.4006 4.75238 12.4375 4.69163 12.4627C4.63089 12.4879 4.56577 12.5009 4.5 12.5009C4.43423 12.5009 4.36911 12.4879 4.30837 12.4627C4.24762 12.4375 4.19245 12.4006 4.146 12.354V12.354ZM11.5 15C11.6326 15 11.7598 14.9473 11.8536 14.8536C11.9473 14.7598 12 14.6326 12 14.5L12 1.5C12 1.36739 11.9473 1.24021 11.8536 1.14645C11.7598 1.05268 11.6326 1 11.5 1C11.3674 1 11.2402 1.05268 11.1464 1.14645C11.0527 1.24021 11 1.36739 11 1.5L11 14.5C11 14.6326 11.0527 14.7598 11.1464 14.8536C11.2402 14.9473 11.3674 15 11.5 15V15Z" fill="black"/>
</svg>
