<svg width="16" height="16" viewBox="0 0 16 16" fill="none" xmlns="http://www.w3.org/2000/svg">
<path fill-rule="evenodd" clip-rule="evenodd" d="M3.05025 12.9497C1.7375 11.637 1 9.85651 1 8C1 6.14348 1.7375 4.36301 3.05025 3.05025C4.36301 1.7375 6.14349 1 8 1C9.85652 1 11.637 1.7375 12.9497 3.05025C14.2625 4.36301 15 6.14349 15 8C15 9.85652 14.2625 11.637 12.9497 12.9497C11.637 14.2625 9.85651 15 8 15C6.14348 15 4.36301 14.2625 3.05025 12.9497ZM13.6569 13.6569C15.1571 12.1566 16 10.1217 16 8C16 5.87827 15.1571 3.84344 13.6569 2.34315C12.1566 0.842855 10.1217 4.3978e-07 8 2.54292e-07C5.87827 6.88044e-08 3.84344 0.842854 2.34315 2.34315C0.842856 3.84344 8.8487e-07 5.87827 6.99382e-07 8C5.13895e-07 10.1217 0.842854 12.1566 2.34314 13.6569C3.84344 15.1571 5.87827 16 8 16C10.1217 16 12.1566 15.1571 13.6569 13.6569ZM12.8536 7.64645C12.7598 7.55268 12.6326 7.5 12.5 7.5L6.707 7.5L8.854 5.354C8.94789 5.26011 9.00063 5.13278 9.00063 5C9.00063 4.86722 8.94789 4.73989 8.854 4.646C8.76011 4.55211 8.63278 4.49937 8.5 4.49937C8.36722 4.49937 8.23989 4.55211 8.146 4.646L5.146 7.646C5.09944 7.69244 5.06249 7.74762 5.03729 7.80837C5.01591 7.85989 5.00333 7.91456 5 7.9701L5 4.5L4 4.5L4 11.5L5 11.5L5 8.0299C5.00333 8.08544 5.01591 8.14011 5.03729 8.19163C5.06249 8.25238 5.09944 8.30755 5.146 8.354L6.646 9.854L8.146 11.354C8.19249 11.4005 8.24768 11.4374 8.30842 11.4625C8.36916 11.4877 8.43426 11.5006 8.5 11.5006C8.56574 11.5006 8.63084 11.4877 8.69158 11.4625C8.75232 11.4374 8.80751 11.4005 8.854 11.354C8.90049 11.3075 8.93736 11.2523 8.96252 11.1916C8.98768 11.1308 9.00063 11.0657 9.00063 11C9.00063 10.9343 8.98768 10.8692 8.96252 10.8084C8.93736 10.7477 8.90049 10.6925 8.854 10.646L6.707 8.5L12.5 8.5C12.6326 8.5 12.7598 8.44732 12.8536 8.35355C12.9473 8.25979 13 8.13261 13 8C13 7.86739 12.9473 7.74022 12.8536 7.64645Z" fill="black"/>
</svg>
