<svg width="16" height="16" viewBox="0 0 16 16" fill="none" xmlns="http://www.w3.org/2000/svg">
<path fill-rule="evenodd" clip-rule="evenodd" d="M12.9497 3.05025C14.2625 4.36301 15 6.14348 15 8C15 9.85651 14.2625 11.637 12.9497 12.9497C11.637 14.2625 9.85652 15 8 15C6.14348 15 4.36301 14.2625 3.05025 12.9497C1.7375 11.637 1 9.85651 1 8C1 6.14348 1.7375 4.36301 3.05025 3.05025C4.36301 1.7375 6.14349 0.999999 8 0.999999C9.85652 0.999999 11.637 1.7375 12.9497 3.05025ZM2.34315 2.34314C0.842855 3.84344 0 5.87827 0 8C0 10.1217 0.842855 12.1566 2.34315 13.6569C3.84344 15.1571 5.87827 16 8 16C10.1217 16 12.1566 15.1571 13.6569 13.6569C15.1571 12.1566 16 10.1217 16 8C16 5.87827 15.1571 3.84344 13.6569 2.34315C12.1566 0.842854 10.1217 0 8 0C5.87827 0 3.84344 0.842853 2.34315 2.34314ZM3.14645 8.35355C3.24022 8.44732 3.36739 8.5 3.5 8.5H9.293L7.146 10.646C7.05211 10.7399 6.99937 10.8672 6.99937 11C6.99937 11.1328 7.05211 11.2601 7.146 11.354C7.23989 11.4479 7.36722 11.5006 7.5 11.5006C7.63278 11.5006 7.76011 11.4479 7.854 11.354L10.854 8.354C10.9006 8.30755 10.9375 8.25238 10.9627 8.19163C10.9841 8.14011 10.9967 8.08544 11 8.0299V11.5H12V4.5H11V7.9701C10.9967 7.91456 10.9841 7.85989 10.9627 7.80837C10.9375 7.74762 10.9006 7.69245 10.854 7.646L9.354 6.146L7.854 4.646C7.80751 4.59951 7.75232 4.56263 7.69158 4.53748C7.63085 4.51232 7.56574 4.49937 7.5 4.49937C7.43426 4.49937 7.36916 4.51232 7.30842 4.53748C7.24768 4.56263 7.19249 4.59951 7.146 4.646C7.09951 4.69249 7.06264 4.74768 7.03748 4.80842C7.01232 4.86915 6.99937 4.93426 6.99937 5C6.99937 5.06574 7.01232 5.13084 7.03748 5.19158C7.06264 5.25232 7.09951 5.30751 7.146 5.354L9.293 7.5L3.5 7.5C3.36739 7.5 3.24022 7.55268 3.14645 7.64645C3.05268 7.74021 3 7.86739 3 8C3 8.13261 3.05268 8.25978 3.14645 8.35355Z" fill="black"/>
</svg>
